<svg width="77" height="16" viewBox="0 0 77 16" fill="none" xmlns="http://www.w3.org/2000/svg">
<path d="M8.11004 15.79L4.46004 9.52001H2.04004V15.79H0.0400391V0.450012H4.99004C6.15004 0.450012 7.13003 0.650012 7.93003 1.04001C8.73003 1.44001 9.33004 1.97001 9.72004 2.65001C10.12 3.32001 10.31 4.09001 10.31 4.96001C10.31 6.02001 10.01 6.95001 9.40003 7.75001C8.79003 8.55001 7.88004 9.09001 6.66004 9.36001L10.51 15.78H8.11004V15.79ZM2.04004 7.91001H4.99004C6.08004 7.91001 6.89003 7.64001 7.43003 7.11001C7.97003 6.58001 8.24004 5.86001 8.24004 4.96001C8.24004 4.06001 7.97004 3.35001 7.44004 2.85001C6.91004 2.35001 6.09004 2.10001 4.99004 2.10001H2.04004V7.91001Z" fill="#231F20"/>
<path d="M20.8698 14.94C19.6998 14.27 18.7698 13.34 18.0898 12.15C17.4098 10.95 17.0698 9.61003 17.0698 8.11003C17.0698 6.61003 17.4098 5.27003 18.0898 4.07003C18.7698 2.87003 19.6998 1.94003 20.8698 1.28003C22.0398 0.61003 23.3398 0.280029 24.7598 0.280029C26.1798 0.280029 27.4998 0.61003 28.6798 1.28003C29.8498 1.95003 30.7798 2.87003 31.4498 4.06003C32.1198 5.25003 32.4598 6.60003 32.4598 8.11003C32.4598 9.62003 32.1198 10.97 31.4498 12.16C30.7798 13.35 29.8498 14.28 28.6798 14.94C27.5098 15.61 26.1998 15.94 24.7598 15.94C23.3198 15.94 22.0398 15.61 20.8698 14.94ZM27.6498 13.46C28.5098 12.96 29.1798 12.25 29.6698 11.33C30.1598 10.41 30.4098 9.34003 30.4098 8.12003C30.4098 6.90003 30.1598 5.81003 29.6698 4.90003C29.1798 3.98003 28.5098 3.28003 27.6598 2.78003C26.8098 2.28003 25.8398 2.03003 24.7598 2.03003C23.6798 2.03003 22.7098 2.28003 21.8598 2.78003C21.0098 3.28003 20.3398 3.99003 19.8498 4.90003C19.3598 5.82003 19.1098 6.89003 19.1098 8.12003C19.1098 9.35003 19.3598 10.41 19.8498 11.33C20.3398 12.25 21.0198 12.97 21.8698 13.46C22.7298 13.96 23.6898 14.21 24.7598 14.21C25.8298 14.21 26.7898 13.96 27.6498 13.46Z" fill="#231F20"/>
<path d="M42.5603 14.94C41.3903 14.27 40.4603 13.34 39.7803 12.15C39.1003 10.95 38.7603 9.61003 38.7603 8.11003C38.7603 6.61003 39.1003 5.27003 39.7803 4.07003C40.4603 2.87003 41.3903 1.94003 42.5603 1.28003C43.7303 0.61003 45.0303 0.280029 46.4503 0.280029C47.8703 0.280029 49.1903 0.61003 50.3703 1.28003C51.5403 1.95003 52.4703 2.87003 53.1403 4.06003C53.8103 5.25003 54.1503 6.60003 54.1503 8.11003C54.1503 9.62003 53.8103 10.97 53.1403 12.16C52.4703 13.35 51.5403 14.28 50.3703 14.94C49.2003 15.61 47.8903 15.94 46.4503 15.94C45.0103 15.94 43.7303 15.61 42.5603 14.94ZM49.3403 13.46C50.2003 12.96 50.8703 12.25 51.3603 11.33C51.8503 10.41 52.1003 9.34003 52.1003 8.12003C52.1003 6.90003 51.8503 5.81003 51.3603 4.90003C50.8703 3.98003 50.2003 3.28003 49.3503 2.78003C48.5003 2.28003 47.5303 2.03003 46.4503 2.03003C45.3703 2.03003 44.4003 2.28003 43.5503 2.78003C42.7003 3.28003 42.0303 3.99003 41.5403 4.90003C41.0503 5.82003 40.8003 6.89003 40.8003 8.12003C40.8003 9.35003 41.0503 10.41 41.5403 11.33C42.0303 12.25 42.7103 12.97 43.5603 13.46C44.4203 13.96 45.3803 14.21 46.4503 14.21C47.5203 14.21 48.4803 13.96 49.3403 13.46Z" fill="#231F20"/>
<path d="M76.7502 0.560059V15.7801H74.7502V4.44006L69.6902 15.7901H68.2802L63.2002 4.42006V15.7901H61.2002V0.560059H63.3602L68.9902 13.1401L74.6202 0.560059H76.7502Z" fill="#231F20"/>
</svg>
