<svg width="104" height="19" viewBox="0 0 104 19" fill="none" xmlns="http://www.w3.org/2000/svg">
<path d="M8.07 18.79L4.42 12.52H2V18.79H0V3.45001H4.95C6.11 3.45001 7.09 3.65001 7.89 4.04001C8.69 4.44001 9.29 4.97001 9.68 5.65001C10.07 6.33001 10.27 7.09001 10.27 7.96001C10.27 9.02001 9.97 9.95001 9.36 10.75C8.75 11.56 7.84 12.09 6.62 12.36L10.47 18.78H8.07V18.79ZM2 10.91H4.95C6.03 10.91 6.85 10.64 7.39 10.11C7.93 9.58001 8.2 8.86001 8.2 7.96001C8.2 7.06001 7.93 6.35001 7.4 5.85001C6.86 5.35001 6.05 5.10001 4.95 5.10001H2V10.91Z" fill="#231F20"/>
<path d="M19.7798 5.07999V10.21H25.3698V11.86H19.7798V17.14H26.0298V18.79H17.7798V3.42999H26.0298V5.07999H19.7798Z" fill="#231F20"/>
<path d="M42.13 3.45001V5.08001H35.46V10.25H40.87V11.88H35.46V18.79H33.46V3.45001H42.13Z" fill="#231F20"/>
<path d="M52.01 17.94C50.84 17.27 49.91 16.34 49.23 15.15C48.55 13.95 48.21 12.61 48.21 11.11C48.21 9.61 48.55 8.27 49.23 7.07C49.91 5.87 50.84 4.94 52.01 4.28C53.18 3.61 54.48 3.28 55.9 3.28C57.32 3.28 58.64 3.61 59.82 4.28C60.99 4.95 61.92 5.87 62.59 7.06C63.26 8.25 63.6 9.6 63.6 11.11C63.6 12.62 63.26 13.97 62.59 15.16C61.92 16.35 60.99 17.28 59.82 17.94C58.65 18.61 57.34 18.94 55.9 18.94C54.46 18.94 53.18 18.61 52.01 17.94ZM58.79 16.46C59.65 15.96 60.32 15.25 60.81 14.33C61.3 13.41 61.55 12.34 61.55 11.12C61.55 9.9 61.3 8.81 60.81 7.9C60.32 6.98 59.65 6.28 58.8 5.78C57.95 5.28 56.98 5.03 55.9 5.03C54.82 5.03 53.85 5.28 53 5.78C52.15 6.28 51.48 6.99 50.99 7.9C50.5 8.82 50.25 9.89 50.25 11.12C50.25 12.35 50.5 13.41 50.99 14.33C51.48 15.25 52.16 15.97 53.01 16.46C53.87 16.96 54.83 17.21 55.9 17.21C56.97 17.21 57.94 16.96 58.79 16.46ZM59.82 0V1.5H52.08V0H59.82Z" fill="#231F20"/>
<path d="M78.7199 18.79L75.0699 12.52H72.6499V18.79H70.6499V3.45001H75.5999C76.7599 3.45001 77.7399 3.65001 78.5399 4.04001C79.3399 4.44001 79.9399 4.97001 80.3299 5.65001C80.7199 6.33001 80.9199 7.09001 80.9199 7.96001C80.9199 9.02001 80.6199 9.95001 80.0099 10.75C79.3999 11.56 78.4899 12.09 77.2699 12.36L81.1199 18.78H78.7199V18.79ZM72.6399 10.91H75.5899C76.6699 10.91 77.4899 10.64 78.0299 10.11C78.5699 9.58001 78.8399 8.86001 78.8399 7.96001C78.8399 7.06001 78.5699 6.35001 78.0399 5.85001C77.4999 5.35001 76.6899 5.10001 75.5899 5.10001H72.6399V10.91Z" fill="#231F20"/>
<path d="M103.97 3.56V18.78H101.97V7.44L96.9099 18.79H95.4999L90.4199 7.42V18.79H88.4199V3.56H90.5799L96.2099 16.14L101.84 3.56H103.97Z" fill="#231F20"/>
</svg>
